<mxfile host="app.diagrams.net" modified="2024-04-03T08:47:42.379Z" agent="Mozilla/5.0 (Windows NT 10.0; Win64; x64) AppleWebKit/537.36 (KHTML, like Gecko) Chrome/123.0.0.0 Safari/537.36" etag="Mnl6orSJMad18Baxg0v9" version="24.1.0" type="github">
  <diagram name="PÃ gina-1" id="gavFFZxLESbgNeX2Jh9i">
    <mxGraphModel dx="1723" dy="687" grid="1" gridSize="10" guides="1" tooltips="1" connect="1" arrows="1" fold="1" page="1" pageScale="1" pageWidth="827" pageHeight="1169" math="0" shadow="0">
      <root>
        <mxCell id="0" />
        <mxCell id="1" parent="0" />
        <mxCell id="yidOsGyVtIGgI4IryUhF-9" value="" style="endArrow=none;html=1;rounded=0;strokeWidth=3;" parent="1" source="yidOsGyVtIGgI4IryUhF-4" target="yidOsGyVtIGgI4IryUhF-8" edge="1">
          <mxGeometry width="50" height="50" relative="1" as="geometry">
            <mxPoint x="80" y="171" as="sourcePoint" />
            <mxPoint x="1310" y="171" as="targetPoint" />
          </mxGeometry>
        </mxCell>
        <mxCell id="yidOsGyVtIGgI4IryUhF-18" value="" style="endArrow=none;html=1;rounded=0;strokeWidth=3;" parent="1" source="yidOsGyVtIGgI4IryUhF-14" target="yidOsGyVtIGgI4IryUhF-17" edge="1">
          <mxGeometry width="50" height="50" relative="1" as="geometry">
            <mxPoint x="510" y="171" as="sourcePoint" />
            <mxPoint x="1310" y="171" as="targetPoint" />
          </mxGeometry>
        </mxCell>
        <mxCell id="yidOsGyVtIGgI4IryUhF-21" value="" style="endArrow=none;html=1;rounded=0;strokeWidth=3;" parent="1" source="yidOsGyVtIGgI4IryUhF-17" target="yidOsGyVtIGgI4IryUhF-20" edge="1">
          <mxGeometry width="50" height="50" relative="1" as="geometry">
            <mxPoint x="706" y="171" as="sourcePoint" />
            <mxPoint x="1310" y="171" as="targetPoint" />
          </mxGeometry>
        </mxCell>
        <mxCell id="yidOsGyVtIGgI4IryUhF-15" value="" style="endArrow=none;html=1;rounded=0;strokeWidth=3;" parent="1" source="yidOsGyVtIGgI4IryUhF-10" target="yidOsGyVtIGgI4IryUhF-14" edge="1">
          <mxGeometry width="50" height="50" relative="1" as="geometry">
            <mxPoint x="324" y="171" as="sourcePoint" />
            <mxPoint x="1310" y="171" as="targetPoint" />
          </mxGeometry>
        </mxCell>
        <mxCell id="yidOsGyVtIGgI4IryUhF-3" value="" style="endArrow=none;html=1;rounded=0;strokeWidth=3;" parent="1" source="yidOsGyVtIGgI4IryUhF-76" edge="1">
          <mxGeometry width="50" height="50" relative="1" as="geometry">
            <mxPoint x="70" y="171" as="sourcePoint" />
            <mxPoint x="1570" y="170" as="targetPoint" />
          </mxGeometry>
        </mxCell>
        <mxCell id="yidOsGyVtIGgI4IryUhF-5" value="" style="endArrow=none;html=1;rounded=0;strokeWidth=3;" parent="1" target="yidOsGyVtIGgI4IryUhF-4" edge="1">
          <mxGeometry width="50" height="50" relative="1" as="geometry">
            <mxPoint x="30" y="171" as="sourcePoint" />
            <mxPoint x="1310" y="171" as="targetPoint" />
          </mxGeometry>
        </mxCell>
        <mxCell id="yidOsGyVtIGgI4IryUhF-4" value="&lt;font style=&quot;font-size: 18px;&quot;&gt;1&lt;/font&gt;" style="rounded=0;whiteSpace=wrap;html=1;fillColor=#fff2cc;strokeColor=#d6b656;" parent="1" vertex="1">
          <mxGeometry x="70" y="141" width="10" height="60" as="geometry" />
        </mxCell>
        <mxCell id="yidOsGyVtIGgI4IryUhF-6" value="&lt;font style=&quot;font-size: 18px;&quot;&gt;2&lt;/font&gt;" style="rounded=0;whiteSpace=wrap;html=1;fillColor=#fff2cc;strokeColor=#d6b656;" parent="1" vertex="1">
          <mxGeometry x="100" y="141" width="40" height="60" as="geometry" />
        </mxCell>
        <mxCell id="yidOsGyVtIGgI4IryUhF-7" value="&lt;font style=&quot;font-size: 18px;&quot;&gt;3&lt;/font&gt;" style="rounded=0;whiteSpace=wrap;html=1;fillColor=#fff2cc;strokeColor=#d6b656;" parent="1" vertex="1">
          <mxGeometry x="164" y="141" width="30" height="60" as="geometry" />
        </mxCell>
        <mxCell id="yidOsGyVtIGgI4IryUhF-8" value="&lt;font style=&quot;font-size: 18px;&quot;&gt;4&lt;/font&gt;" style="rounded=0;whiteSpace=wrap;html=1;fillColor=#fff2cc;strokeColor=#d6b656;" parent="1" vertex="1">
          <mxGeometry x="222" y="141" width="30" height="60" as="geometry" />
        </mxCell>
        <mxCell id="yidOsGyVtIGgI4IryUhF-11" value="" style="endArrow=none;html=1;rounded=0;strokeWidth=3;" parent="1" source="yidOsGyVtIGgI4IryUhF-8" target="yidOsGyVtIGgI4IryUhF-10" edge="1">
          <mxGeometry width="50" height="50" relative="1" as="geometry">
            <mxPoint x="252" y="171" as="sourcePoint" />
            <mxPoint x="1310" y="171" as="targetPoint" />
          </mxGeometry>
        </mxCell>
        <mxCell id="yidOsGyVtIGgI4IryUhF-10" value="&lt;font style=&quot;font-size: 18px;&quot;&gt;5&lt;/font&gt;" style="rounded=0;whiteSpace=wrap;html=1;fillColor=#fff2cc;strokeColor=#d6b656;" parent="1" vertex="1">
          <mxGeometry x="274" y="141" width="50" height="60" as="geometry" />
        </mxCell>
        <mxCell id="yidOsGyVtIGgI4IryUhF-12" value="&lt;font style=&quot;font-size: 18px;&quot;&gt;6&lt;/font&gt;" style="rounded=0;whiteSpace=wrap;html=1;fillColor=#fff2cc;strokeColor=#d6b656;" parent="1" vertex="1">
          <mxGeometry x="360" y="141" width="46" height="60" as="geometry" />
        </mxCell>
        <mxCell id="yidOsGyVtIGgI4IryUhF-13" value="&lt;font style=&quot;font-size: 18px;&quot;&gt;7&lt;/font&gt;" style="rounded=0;whiteSpace=wrap;html=1;fillColor=#fff2cc;strokeColor=#d6b656;" parent="1" vertex="1">
          <mxGeometry x="430" y="141" width="30" height="60" as="geometry" />
        </mxCell>
        <mxCell id="yidOsGyVtIGgI4IryUhF-14" value="&lt;font style=&quot;font-size: 18px;&quot;&gt;8&lt;/font&gt;" style="rounded=0;whiteSpace=wrap;html=1;fillColor=#fff2cc;strokeColor=#d6b656;" parent="1" vertex="1">
          <mxGeometry x="498" y="141" width="30" height="60" as="geometry" />
        </mxCell>
        <mxCell id="yidOsGyVtIGgI4IryUhF-16" value="&lt;font style=&quot;font-size: 18px;&quot;&gt;9&lt;/font&gt;" style="rounded=0;whiteSpace=wrap;html=1;fillColor=#fff2cc;strokeColor=#d6b656;" parent="1" vertex="1">
          <mxGeometry x="615" y="141" width="20" height="60" as="geometry" />
        </mxCell>
        <mxCell id="yidOsGyVtIGgI4IryUhF-17" value="&lt;font style=&quot;font-size: 18px;&quot;&gt;10&lt;/font&gt;" style="rounded=0;whiteSpace=wrap;html=1;fillColor=#fff2cc;strokeColor=#d6b656;" parent="1" vertex="1">
          <mxGeometry x="666.5" y="141" width="39" height="60" as="geometry" />
        </mxCell>
        <mxCell id="yidOsGyVtIGgI4IryUhF-19" value="&lt;font style=&quot;font-size: 18px;&quot;&gt;11&lt;/font&gt;" style="rounded=0;whiteSpace=wrap;html=1;fillColor=#fff2cc;strokeColor=#d6b656;" parent="1" vertex="1">
          <mxGeometry x="746" y="141" width="174" height="60" as="geometry" />
        </mxCell>
        <mxCell id="yidOsGyVtIGgI4IryUhF-20" value="&lt;font style=&quot;font-size: 18px;&quot;&gt;12&lt;/font&gt;" style="rounded=0;whiteSpace=wrap;html=1;fillColor=#fff2cc;strokeColor=#d6b656;" parent="1" vertex="1">
          <mxGeometry x="978" y="141" width="50" height="60" as="geometry" />
        </mxCell>
        <mxCell id="yidOsGyVtIGgI4IryUhF-23" value="" style="endArrow=none;html=1;rounded=0;strokeWidth=3;" parent="1" source="yidOsGyVtIGgI4IryUhF-20" target="yidOsGyVtIGgI4IryUhF-22" edge="1">
          <mxGeometry width="50" height="50" relative="1" as="geometry">
            <mxPoint x="1046" y="171" as="sourcePoint" />
            <mxPoint x="1310" y="171" as="targetPoint" />
          </mxGeometry>
        </mxCell>
        <mxCell id="yidOsGyVtIGgI4IryUhF-22" value="&lt;font style=&quot;font-size: 18px;&quot;&gt;13&lt;/font&gt;" style="rounded=0;whiteSpace=wrap;html=1;fillColor=#fff2cc;strokeColor=#d6b656;" parent="1" vertex="1">
          <mxGeometry x="1076" y="141" width="30" height="60" as="geometry" />
        </mxCell>
        <mxCell id="yidOsGyVtIGgI4IryUhF-25" value="" style="endArrow=none;html=1;rounded=0;strokeWidth=3;" parent="1" source="yidOsGyVtIGgI4IryUhF-22" target="yidOsGyVtIGgI4IryUhF-24" edge="1">
          <mxGeometry width="50" height="50" relative="1" as="geometry">
            <mxPoint x="1100" y="171" as="sourcePoint" />
            <mxPoint x="1310" y="171" as="targetPoint" />
          </mxGeometry>
        </mxCell>
        <mxCell id="yidOsGyVtIGgI4IryUhF-24" value="&lt;font style=&quot;font-size: 18px;&quot;&gt;14&lt;/font&gt;" style="rounded=0;whiteSpace=wrap;html=1;fillColor=#fff2cc;strokeColor=#d6b656;" parent="1" vertex="1">
          <mxGeometry x="1130" y="141" width="50" height="60" as="geometry" />
        </mxCell>
        <mxCell id="yidOsGyVtIGgI4IryUhF-27" value="" style="endArrow=none;html=1;rounded=0;strokeWidth=3;" parent="1" source="yidOsGyVtIGgI4IryUhF-24" target="yidOsGyVtIGgI4IryUhF-26" edge="1">
          <mxGeometry width="50" height="50" relative="1" as="geometry">
            <mxPoint x="1180" y="171" as="sourcePoint" />
            <mxPoint x="1310" y="171" as="targetPoint" />
          </mxGeometry>
        </mxCell>
        <mxCell id="yidOsGyVtIGgI4IryUhF-26" value="&lt;font style=&quot;font-size: 18px;&quot;&gt;15&lt;/font&gt;" style="rounded=0;whiteSpace=wrap;html=1;fillColor=#fff2cc;strokeColor=#d6b656;" parent="1" vertex="1">
          <mxGeometry x="1250" y="140" width="40" height="60" as="geometry" />
        </mxCell>
        <mxCell id="yidOsGyVtIGgI4IryUhF-28" value="" style="shape=flexArrow;endArrow=classic;startArrow=classic;html=1;rounded=0;fillColor=#dae8fc;strokeColor=none;" parent="1" edge="1">
          <mxGeometry width="100" height="100" relative="1" as="geometry">
            <mxPoint x="50" y="269" as="sourcePoint" />
            <mxPoint x="400" y="269" as="targetPoint" />
          </mxGeometry>
        </mxCell>
        <mxCell id="yidOsGyVtIGgI4IryUhF-29" value="" style="shape=flexArrow;endArrow=classic;startArrow=classic;html=1;rounded=0;fillColor=#e1d5e7;strokeColor=none;" parent="1" edge="1">
          <mxGeometry width="100" height="100" relative="1" as="geometry">
            <mxPoint x="370" y="297" as="sourcePoint" />
            <mxPoint x="700" y="297" as="targetPoint" />
          </mxGeometry>
        </mxCell>
        <mxCell id="yidOsGyVtIGgI4IryUhF-30" value="" style="shape=flexArrow;endArrow=classic;startArrow=classic;html=1;rounded=0;strokeColor=none;fillColor=#d5e8d4;" parent="1" edge="1">
          <mxGeometry width="100" height="100" relative="1" as="geometry">
            <mxPoint x="670" y="269" as="sourcePoint" />
            <mxPoint x="1420" y="270" as="targetPoint" />
          </mxGeometry>
        </mxCell>
        <mxCell id="yidOsGyVtIGgI4IryUhF-31" value="&lt;span style=&quot;font-size: 24px;&quot;&gt;&lt;b&gt;LR-PCR1&lt;/b&gt;&lt;/span&gt;" style="text;html=1;align=center;verticalAlign=middle;whiteSpace=wrap;rounded=0;" parent="1" vertex="1">
          <mxGeometry x="130" y="279" width="108" height="30" as="geometry" />
        </mxCell>
        <mxCell id="yidOsGyVtIGgI4IryUhF-32" value="&lt;span style=&quot;color: rgb(0, 0, 0); font-family: Helvetica; font-size: 24px; font-style: normal; font-variant-ligatures: normal; font-variant-caps: normal; letter-spacing: normal; orphans: 2; text-align: center; text-indent: 0px; text-transform: none; widows: 2; word-spacing: 0px; -webkit-text-stroke-width: 0px; white-space: normal; background-color: rgb(251, 251, 251); text-decoration-thickness: initial; text-decoration-style: initial; text-decoration-color: initial; float: none; display: inline !important;&quot;&gt;&lt;b&gt;LR-PCR2&lt;/b&gt;&lt;/span&gt;" style="text;whiteSpace=wrap;html=1;fillColor=none;" parent="1" vertex="1">
          <mxGeometry x="483" y="300" width="140" height="50" as="geometry" />
        </mxCell>
        <mxCell id="yidOsGyVtIGgI4IryUhF-33" value="&lt;span style=&quot;color: rgb(0, 0, 0); font-family: Helvetica; font-size: 24px; font-style: normal; font-variant-ligatures: normal; font-variant-caps: normal; letter-spacing: normal; orphans: 2; text-align: center; text-indent: 0px; text-transform: none; widows: 2; word-spacing: 0px; -webkit-text-stroke-width: 0px; white-space: normal; background-color: rgb(251, 251, 251); text-decoration-thickness: initial; text-decoration-style: initial; text-decoration-color: initial; float: none; display: inline !important;&quot;&gt;&lt;b&gt;LR-PCR3&lt;/b&gt;&lt;/span&gt;" style="text;whiteSpace=wrap;html=1;" parent="1" vertex="1">
          <mxGeometry x="920" y="273" width="140" height="50" as="geometry" />
        </mxCell>
        <mxCell id="yidOsGyVtIGgI4IryUhF-34" value="" style="endArrow=classic;startArrow=classic;html=1;rounded=0;entryX=0.031;entryY=1;entryDx=0;entryDy=0;entryPerimeter=0;fillColor=#dae8fc;strokeColor=#6c8ebf;" parent="1" edge="1">
          <mxGeometry width="50" height="50" relative="1" as="geometry">
            <mxPoint x="50" y="347" as="sourcePoint" />
            <mxPoint x="89.52200000000013" y="347" as="targetPoint" />
            <Array as="points" />
          </mxGeometry>
        </mxCell>
        <mxCell id="yidOsGyVtIGgI4IryUhF-35" value="" style="endArrow=classic;startArrow=classic;html=1;rounded=0;fillColor=#dae8fc;strokeColor=#6c8ebf;" parent="1" edge="1">
          <mxGeometry width="50" height="50" relative="1" as="geometry">
            <mxPoint x="99.94999999999999" y="348" as="sourcePoint" />
            <mxPoint x="150" y="348" as="targetPoint" />
          </mxGeometry>
        </mxCell>
        <mxCell id="yidOsGyVtIGgI4IryUhF-36" value="" style="endArrow=classic;startArrow=classic;html=1;rounded=0;fillColor=#dae8fc;strokeColor=#6c8ebf;" parent="1" edge="1">
          <mxGeometry width="50" height="50" relative="1" as="geometry">
            <mxPoint x="159" y="348" as="sourcePoint" />
            <mxPoint x="260" y="348" as="targetPoint" />
          </mxGeometry>
        </mxCell>
        <mxCell id="yidOsGyVtIGgI4IryUhF-38" value="" style="endArrow=classic;startArrow=classic;html=1;rounded=0;fillColor=#dae8fc;strokeColor=#6c8ebf;" parent="1" edge="1">
          <mxGeometry width="50" height="50" relative="1" as="geometry">
            <mxPoint x="263" y="348.21000000000004" as="sourcePoint" />
            <mxPoint x="340" y="348" as="targetPoint" />
          </mxGeometry>
        </mxCell>
        <mxCell id="yidOsGyVtIGgI4IryUhF-41" value="" style="endArrow=classic;startArrow=classic;html=1;rounded=0;fillColor=#e1d5e7;strokeColor=#9673a6;" parent="1" edge="1">
          <mxGeometry width="50" height="50" relative="1" as="geometry">
            <mxPoint x="606" y="348" as="sourcePoint" />
            <mxPoint x="649" y="348" as="targetPoint" />
          </mxGeometry>
        </mxCell>
        <mxCell id="yidOsGyVtIGgI4IryUhF-42" value="" style="endArrow=classic;startArrow=classic;html=1;rounded=0;fillColor=#d5e8d4;strokeColor=#82b366;" parent="1" edge="1">
          <mxGeometry width="50" height="50" relative="1" as="geometry">
            <mxPoint x="736" y="340" as="sourcePoint" />
            <mxPoint x="870" y="340" as="targetPoint" />
          </mxGeometry>
        </mxCell>
        <mxCell id="yidOsGyVtIGgI4IryUhF-44" value="" style="endArrow=classic;startArrow=classic;html=1;rounded=0;fillColor=#d5e8d4;strokeColor=#82b366;" parent="1" edge="1">
          <mxGeometry width="50" height="50" relative="1" as="geometry">
            <mxPoint x="810" y="355.82" as="sourcePoint" />
            <mxPoint x="960" y="356" as="targetPoint" />
          </mxGeometry>
        </mxCell>
        <mxCell id="yidOsGyVtIGgI4IryUhF-45" value="" style="endArrow=classic;startArrow=classic;html=1;rounded=0;fillColor=#d5e8d4;strokeColor=#82b366;" parent="1" edge="1">
          <mxGeometry width="50" height="50" relative="1" as="geometry">
            <mxPoint x="990" y="348" as="sourcePoint" />
            <mxPoint x="1050" y="348" as="targetPoint" />
          </mxGeometry>
        </mxCell>
        <mxCell id="yidOsGyVtIGgI4IryUhF-46" value="" style="endArrow=classic;startArrow=classic;html=1;rounded=0;fillColor=#d5e8d4;strokeColor=#82b366;" parent="1" edge="1">
          <mxGeometry width="50" height="50" relative="1" as="geometry">
            <mxPoint x="1063.5" y="348" as="sourcePoint" />
            <mxPoint x="1106.5" y="348" as="targetPoint" />
          </mxGeometry>
        </mxCell>
        <mxCell id="yidOsGyVtIGgI4IryUhF-47" value="" style="endArrow=classic;startArrow=classic;html=1;rounded=0;fillColor=#d5e8d4;strokeColor=#82b366;" parent="1" edge="1">
          <mxGeometry width="50" height="50" relative="1" as="geometry">
            <mxPoint x="1123" y="349" as="sourcePoint" />
            <mxPoint x="1187" y="349" as="targetPoint" />
          </mxGeometry>
        </mxCell>
        <mxCell id="yidOsGyVtIGgI4IryUhF-48" value="" style="endArrow=classic;startArrow=classic;html=1;rounded=0;fillColor=#d5e8d4;strokeColor=#82b366;" parent="1" edge="1">
          <mxGeometry width="50" height="50" relative="1" as="geometry">
            <mxPoint x="1238" y="350" as="sourcePoint" />
            <mxPoint x="1340" y="350" as="targetPoint" />
          </mxGeometry>
        </mxCell>
        <mxCell id="yidOsGyVtIGgI4IryUhF-50" value="&lt;font style=&quot;font-size: 18px;&quot;&gt;E1&lt;/font&gt;" style="text;html=1;align=center;verticalAlign=middle;whiteSpace=wrap;rounded=0;" parent="1" vertex="1">
          <mxGeometry x="45" y="357" width="60" height="30" as="geometry" />
        </mxCell>
        <mxCell id="yidOsGyVtIGgI4IryUhF-51" value="&lt;font style=&quot;font-size: 18px;&quot;&gt;E2&lt;/font&gt;" style="text;html=1;align=center;verticalAlign=middle;whiteSpace=wrap;rounded=0;" parent="1" vertex="1">
          <mxGeometry x="95" y="357" width="60" height="30" as="geometry" />
        </mxCell>
        <mxCell id="yidOsGyVtIGgI4IryUhF-52" value="&lt;font style=&quot;font-size: 18px;&quot;&gt;E3-E4&lt;/font&gt;" style="text;html=1;align=center;verticalAlign=middle;whiteSpace=wrap;rounded=0;" parent="1" vertex="1">
          <mxGeometry x="178" y="357" width="60" height="30" as="geometry" />
        </mxCell>
        <mxCell id="yidOsGyVtIGgI4IryUhF-54" value="&lt;font style=&quot;font-size: 18px;&quot;&gt;E5&lt;/font&gt;" style="text;html=1;align=center;verticalAlign=middle;whiteSpace=wrap;rounded=0;" parent="1" vertex="1">
          <mxGeometry x="269" y="357" width="60" height="30" as="geometry" />
        </mxCell>
        <mxCell id="yidOsGyVtIGgI4IryUhF-57" value="&lt;font style=&quot;font-size: 18px;&quot;&gt;E9&lt;/font&gt;" style="text;html=1;align=center;verticalAlign=middle;whiteSpace=wrap;rounded=0;" parent="1" vertex="1">
          <mxGeometry x="600" y="357" width="60" height="30" as="geometry" />
        </mxCell>
        <mxCell id="yidOsGyVtIGgI4IryUhF-58" value="&lt;span style=&quot;font-size: 18px;&quot;&gt;E11a&lt;/span&gt;" style="text;html=1;align=center;verticalAlign=middle;whiteSpace=wrap;rounded=0;" parent="1" vertex="1">
          <mxGeometry x="760" y="357" width="60" height="30" as="geometry" />
        </mxCell>
        <mxCell id="yidOsGyVtIGgI4IryUhF-59" value="&lt;span style=&quot;font-size: 18px;&quot;&gt;E11b&lt;/span&gt;" style="text;html=1;align=center;verticalAlign=middle;whiteSpace=wrap;rounded=0;" parent="1" vertex="1">
          <mxGeometry x="880" y="357" width="60" height="30" as="geometry" />
        </mxCell>
        <mxCell id="yidOsGyVtIGgI4IryUhF-60" value="&lt;span style=&quot;font-size: 18px;&quot;&gt;E12&lt;/span&gt;" style="text;html=1;align=center;verticalAlign=middle;whiteSpace=wrap;rounded=0;" parent="1" vertex="1">
          <mxGeometry x="986" y="357" width="60" height="30" as="geometry" />
        </mxCell>
        <mxCell id="yidOsGyVtIGgI4IryUhF-61" value="&lt;span style=&quot;font-size: 18px;&quot;&gt;E13&lt;/span&gt;" style="text;html=1;align=center;verticalAlign=middle;whiteSpace=wrap;rounded=0;" parent="1" vertex="1">
          <mxGeometry x="1060" y="357" width="60" height="30" as="geometry" />
        </mxCell>
        <mxCell id="yidOsGyVtIGgI4IryUhF-62" value="&lt;span style=&quot;font-size: 18px;&quot;&gt;E14&lt;/span&gt;" style="text;html=1;align=center;verticalAlign=middle;whiteSpace=wrap;rounded=0;" parent="1" vertex="1">
          <mxGeometry x="1131" y="357" width="60" height="30" as="geometry" />
        </mxCell>
        <mxCell id="yidOsGyVtIGgI4IryUhF-63" value="&lt;span style=&quot;font-size: 18px;&quot;&gt;E15&lt;/span&gt;" style="text;html=1;align=center;verticalAlign=middle;whiteSpace=wrap;rounded=0;" parent="1" vertex="1">
          <mxGeometry x="1250" y="357" width="60" height="30" as="geometry" />
        </mxCell>
        <mxCell id="yidOsGyVtIGgI4IryUhF-64" value="" style="endArrow=classic;startArrow=classic;html=1;rounded=0;fillColor=#f8cecc;strokeColor=#b85450;" parent="1" edge="1">
          <mxGeometry width="50" height="50" relative="1" as="geometry">
            <mxPoint x="351" y="221" as="sourcePoint" />
            <mxPoint x="415" y="221" as="targetPoint" />
          </mxGeometry>
        </mxCell>
        <mxCell id="yidOsGyVtIGgI4IryUhF-66" value="" style="endArrow=classic;startArrow=classic;html=1;rounded=0;fillColor=#f8cecc;strokeColor=#b85450;" parent="1" edge="1">
          <mxGeometry width="50" height="50" relative="1" as="geometry">
            <mxPoint x="654" y="222" as="sourcePoint" />
            <mxPoint x="740" y="222" as="targetPoint" />
          </mxGeometry>
        </mxCell>
        <mxCell id="yidOsGyVtIGgI4IryUhF-67" value="&lt;font style=&quot;font-size: 18px;&quot;&gt;E6&lt;/font&gt;" style="text;html=1;align=center;verticalAlign=middle;whiteSpace=wrap;rounded=0;" parent="1" vertex="1">
          <mxGeometry x="353" y="221" width="60" height="30" as="geometry" />
        </mxCell>
        <mxCell id="yidOsGyVtIGgI4IryUhF-68" value="&lt;font style=&quot;font-size: 18px;&quot;&gt;E10&lt;/font&gt;" style="text;html=1;align=center;verticalAlign=middle;whiteSpace=wrap;rounded=0;" parent="1" vertex="1">
          <mxGeometry x="656" y="221" width="60" height="30" as="geometry" />
        </mxCell>
        <mxCell id="yidOsGyVtIGgI4IryUhF-70" value="&lt;font style=&quot;font-size: 18px;&quot;&gt;E7&lt;/font&gt;" style="text;html=1;align=center;verticalAlign=middle;whiteSpace=wrap;rounded=0;" parent="1" vertex="1">
          <mxGeometry x="414" y="220" width="60" height="31" as="geometry" />
        </mxCell>
        <mxCell id="yidOsGyVtIGgI4IryUhF-71" value="&lt;font style=&quot;font-size: 18px;&quot;&gt;E8&lt;/font&gt;" style="text;html=1;align=center;verticalAlign=middle;whiteSpace=wrap;rounded=0;" parent="1" vertex="1">
          <mxGeometry x="483" y="221" width="60" height="30" as="geometry" />
        </mxCell>
        <mxCell id="yidOsGyVtIGgI4IryUhF-72" value="" style="endArrow=classic;startArrow=classic;html=1;rounded=0;fillColor=#f8cecc;strokeColor=#b85450;exitX=0;exitY=0;exitDx=0;exitDy=0;entryX=1;entryY=0;entryDx=0;entryDy=0;" parent="1" edge="1">
          <mxGeometry width="50" height="50" relative="1" as="geometry">
            <mxPoint x="421" y="221" as="sourcePoint" />
            <mxPoint x="471.9999999999999" y="221" as="targetPoint" />
          </mxGeometry>
        </mxCell>
        <mxCell id="yidOsGyVtIGgI4IryUhF-73" value="" style="endArrow=classic;startArrow=classic;html=1;rounded=0;fillColor=#f8cecc;strokeColor=#b85450;" parent="1" edge="1">
          <mxGeometry width="50" height="50" relative="1" as="geometry">
            <mxPoint x="487" y="221" as="sourcePoint" />
            <mxPoint x="542" y="221" as="targetPoint" />
          </mxGeometry>
        </mxCell>
        <mxCell id="yidOsGyVtIGgI4IryUhF-75" value="" style="rounded=0;whiteSpace=wrap;html=1;fillColor=#fff2cc;strokeColor=#d6b656;" parent="1" vertex="1">
          <mxGeometry x="50" y="160" width="20" height="20" as="geometry" />
        </mxCell>
        <mxCell id="yidOsGyVtIGgI4IryUhF-78" value="" style="endArrow=none;html=1;rounded=0;strokeWidth=3;" parent="1" source="yidOsGyVtIGgI4IryUhF-26" target="yidOsGyVtIGgI4IryUhF-76" edge="1">
          <mxGeometry width="50" height="50" relative="1" as="geometry">
            <mxPoint x="1273" y="170" as="sourcePoint" />
            <mxPoint x="1300" y="171" as="targetPoint" />
          </mxGeometry>
        </mxCell>
        <mxCell id="yidOsGyVtIGgI4IryUhF-76" value="" style="rounded=0;whiteSpace=wrap;html=1;fillColor=#fff2cc;strokeColor=#d6b656;" parent="1" vertex="1">
          <mxGeometry x="1290" y="160" width="180" height="20" as="geometry" />
        </mxCell>
      </root>
    </mxGraphModel>
  </diagram>
</mxfile>
